<svg xmlns="http://www.w3.org/2000/svg" viewBox="0 0 1080 1080">
  <path fill="#05ed96" d="M1030.47,428.41c-.82-3.61-2.64-6.91-5.26-9.52L662.16,55.84c-2.62-2.62-5.92-4.44-9.52-5.26-36.4-8.27-73.94-12.46-111.59-12.46-134.06,0-260.09,52.2-354.88,147-94.79,94.79-146.99,220.82-146.99,354.88s52.2,260.09,146.99,354.88c94.79,94.79,220.82,147,354.88,147s260.09-52.2,354.88-147c94.79-94.79,146.99-220.82,146.99-354.88,0-37.65-4.19-75.19-12.46-111.59ZM906.15,540c0,201.32-163.78,365.1-365.1,365.1s-365.1-163.78-365.1-365.1,163.78-365.1,365.1-365.1c11.55,0,23.13.54,34.61,1.62-5.74,21.53-8.71,43.94-8.75,66.81-8.59-.74-17.24-1.12-25.86-1.12-164.2,0-297.79,133.59-297.79,297.79s133.59,297.79,297.79,297.79,297.79-133.59,297.79-297.79c0-12.29-.76-24.59-2.26-36.76,22.77-.88,45.08-4.71,66.44-11.28,2.08,15.88,3.14,31.97,3.14,48.05h0ZM796.81,501.75c1.87,12.61,2.82,25.43,2.82,38.25,0,142.58-116,258.58-258.58,258.58s-258.58-116-258.58-258.58,116-258.58,258.58-258.58c9.62,0,19.28.54,28.82,1.6,17.53,115.45,111.12,205.5,226.94,218.74ZM541.05,1002.67c-255.11,0-462.67-207.55-462.67-462.67S285.93,77.33,541.05,77.33c27.1,0,54.13,2.35,80.63,7-13.16,16.81-24.07,34.99-32.6,54.18-15.88-1.88-31.98-2.83-48.03-2.83-222.94,0-404.31,181.37-404.31,404.31s181.37,404.31,404.31,404.31,404.31-181.37,404.31-404.31c0-21.06-1.64-42.17-4.87-62.88,18.87-9.23,36.66-20.79,52.95-34.51,6.81,31.83,10.27,64.56,10.27,97.38,0,255.11-207.55,462.67-462.67,462.67h0Z"/>
  <path fill="#05ed96" d="M541.05,1049.39c-136.06,0-263.98-52.99-360.2-149.2-96.21-96.21-149.2-224.13-149.2-360.19s52.99-263.98,149.2-360.19C277.06,83.59,404.98,30.61,541.05,30.61c38.21,0,76.31,4.25,113.25,12.64,4.99,1.14,9.55,3.65,13.17,7.27l363.05,363.05c3.62,3.62,6.14,8.18,7.27,13.17h0c8.39,36.95,12.64,75.05,12.64,113.25,0,136.06-52.99,263.98-149.2,360.19-96.21,96.21-224.13,149.2-360.2,149.2ZM541.05,45.64c-132.05,0-256.19,51.42-349.56,144.79-93.37,93.37-144.79,217.52-144.79,349.56s51.42,256.19,144.79,349.56c93.37,93.37,217.52,144.79,349.56,144.79s256.19-51.42,349.56-144.79c93.37-93.37,144.79-217.52,144.79-349.56,0-37.08-4.13-74.06-12.27-109.92h0c-.51-2.23-1.63-4.26-3.24-5.87L656.84,61.15c-1.61-1.61-3.64-2.73-5.87-3.24-35.85-8.14-72.84-12.27-109.92-12.27Z"/>
  <path fill="#080808" d="M517.2,522.54c-.47-50.29-17.68-90.9-38.44-90.7-20.35.19-36.51,39.58-36.69,88.53l34.98,16.11-33.14,13.25c5.04,37.32,19.61,64.38,36.56,64.22,20.75-.19,37.19-41.12,36.72-91.41Z"/>
  <path fill="#080808" d="M640.01,521.11c-.47-50.29-17.68-90.9-38.44-90.7-20.35.19-36.51,39.58-36.69,88.53l34.98,16.11-33.14,13.25c5.04,37.32,19.61,64.38,36.56,64.22,20.75-.19,37.19-41.12,36.72-91.41Z"/>
  <path fill="#080808" d="M541.05,727.37c100.87,0,183.07-80.7,185.88-180.9h-24.51c-2.8,86.69-74.01,156.4-161.37,156.4s-158.57-69.71-161.37-156.4h-24.51c2.81,100.2,85.01,180.9,185.88,180.9Z"/>
</svg>
